<svg xmlns="http://www.w3.org/2000/svg" id="icons" viewBox="0 0 48 36"><defs id="defs-2"><style id="style-3">
	.cls-1 { stroke-miterlimit: 10; }
	.cls-2 { stroke-linejoin: round; }
</style></defs><title id="title-4">sh2</title><path class="cls-1" d="M68,239H55a3,3,0,0,1-3-3v-5a3.38,3.38,0,0,1,.17-1.25l1-1.57a1,1,0,0,0-.59-1.52L50,226a1,1,0,0,1-1-1v-2a1,1,0,0,1,1-1h4.46a1,1,0,0,1,.83.45l1.32,2A6.76,6.76,0,0,0,60,226h9" transform="translate(-48 -216)" fill="none" stroke="#fcb1ae" stroke-width="2px" stroke-opacity="1" id="path-5" type="solidColor" data-changed="true"></path><path class="cls-1" d="M81.86,223.71s-1.49-3.83-1.77-4.48c-.39-.9-1.2-1.18-2.21-1.39A39.75,39.75,0,0,0,69,217a39.75,39.75,0,0,0-8.88.83c-1,.21-1.82.49-2.21,1.39-.28.65-1.77,4.48-1.77,4.48" transform="translate(-48 -216)" fill="none" stroke="#fcb1ae" stroke-width="2px" stroke-opacity="1" id="path-6" type="solidColor" data-changed="true"></path><path class="cls-1" d="M55,230h0a6.83,6.83,0,0,0,4.83,2H62" transform="translate(-48 -216)" fill="none" stroke="#fcb1ae" stroke-width="2px" stroke-opacity="1" id="path-7" type="solidColor" data-changed="true"></path><path class="cls-1" d="M53,238v4a1,1,0,0,0,1,1h7a1,1,0,0,0,1-1v-3" transform="translate(-48 -216)" fill="none" stroke="#fcb1ae" stroke-width="2px" stroke-opacity="1" id="path-8" type="solidColor" data-changed="true"></path><line class="cls-1" x1="21" y1="19" x2="14" y2="19" fill="none" stroke="#fcb1ae" stroke-width="2px" stroke-opacity="1" id="line-9" type="solidColor" data-changed="true"></line><path class="cls-1" d="M86,231a3.38,3.38,0,0,0-.17-1.25l-1-1.57a1,1,0,0,1,.59-1.52L88,226a1,1,0,0,0,1-1v-2a1,1,0,0,0-1-1H83.54a1,1,0,0,0-.83.45l-1.32,2A6.76,6.76,0,0,1,78,226H69" transform="translate(-48 -216)" fill="none" stroke="#fcb1ae" stroke-width="2px" stroke-opacity="1" id="path-10" type="solidColor" data-changed="true"></path><path class="cls-1" d="M83,230h0a6.83,6.83,0,0,1-4.83,2H76" transform="translate(-48 -216)" fill="none" stroke="#fcb1ae" stroke-width="2px" stroke-opacity="1" id="path-11" type="solidColor" data-changed="true"></path><line class="cls-1" x1="21" y1="19" x2="28" y2="19" fill="none" stroke="#fcb1ae" stroke-width="2px" stroke-opacity="1" id="line-12" type="solidColor" data-changed="true"></line><polygon class="cls-2" points="43 14 30 26.88 25 21.88 21 25.88 29.83 35 47 18 43 14" fill="none" stroke="#fcb1ae" stroke-width="2px" stroke-opacity="1" id="polygon-13" type="solidColor" data-changed="true"></polygon></svg>