<svg xmlns="http://www.w3.org/2000/svg" id="icons" viewBox="0 0 48 47"><defs id="defs-2"><style id="style-3">
	.cls-1 { stroke-linecap: round; stroke-linejoin: round; }
</style></defs><title id="title-4">sh3</title><path class="cls-1" d="M400,209c1,7.51,3.77,13.9,15,15-11.23,1.1-14,7.49-15,15-1-7.51-2.77-13.9-14-15C397.23,222.9,399,216.51,400,209Z" transform="translate(-368 -208)" fill="none" stroke="#fcb1ae" stroke-width="2px" stroke-opacity="1" id="path-5" type="solidColor" data-changed="true"></path><path class="cls-1" d="M378,243c-.61-4.45-2.34-8.35-9-9,6.66-.65,8.39-4.55,9-9,.61,4.45,2.34,8.35,9,9C380.34,234.65,378.61,238.55,378,243Z" transform="translate(-368 -208)" fill="none" stroke="#fcb1ae" stroke-width="2px" stroke-opacity="1" id="path-6" type="solidColor" data-changed="true"></path><path class="cls-1" d="M391,254c-.48-3.46-1.82-6.49-7-7,5.18-.51,6.52-3.54,7-7,.48,3.46,1.82,6.49,7,7C392.82,247.51,391.48,250.54,391,254Z" transform="translate(-368 -208)" fill="none" stroke="#fcb1ae" stroke-width="2px" stroke-opacity="1" id="path-7" type="solidColor" data-changed="true"></path></svg>