<svg xmlns="http://www.w3.org/2000/svg" id="icons" viewBox="0 0 47.21 44.12"><defs id="defs-2"><style id="style-3">
	.cls-1 { stroke-miterlimit: 10; }
</style></defs><title id="title-4">sh4</title><path class="cls-1" d="M130,255l6-6s3.1.9,5-1l3-3" transform="translate(-128.2 -211.59)" fill="none" stroke="#fcb1ae" stroke-width="2px" stroke-opacity="1" id="path-5" type="solidColor" data-changed="true"></path><path class="cls-1" d="M145,228h-7c-3.41,0-4.5.94-6,3l-3,4" transform="translate(-128.2 -211.59)" fill="none" stroke="#fcb1ae" stroke-width="2px" stroke-opacity="1" id="path-6" type="solidColor" data-changed="true"></path><path class="cls-1" d="M136,234h10c2.54,0,1.41,4.62-2,5h-3l-2,2a5.51,5.51,0,0,1-5,2" transform="translate(-128.2 -211.59)" fill="none" stroke="#fcb1ae" stroke-width="2px" stroke-opacity="1" id="path-7" type="solidColor" data-changed="true"></path><polyline class="cls-1" points="10.86 22.65 32.1 1.41 45.8 15.12 21.82 39.09 11.55 28.82" fill="none" stroke="#fcb1ae" stroke-width="2px" stroke-opacity="1" id="polyline-8" type="solidColor" data-changed="true"></polyline><path class="cls-1" d="M145.91,241.09l2.06,2.06a2.91,2.91,0,0,1,4.11,0l14.39-14.39a2.91,2.91,0,0,1,0-4.11l-4.11-4.11a2.91,2.91,0,0,1-4.11,0L146.6,232.18" transform="translate(-128.2 -211.59)" fill="none" stroke="#fcb1ae" stroke-width="2px" stroke-opacity="1" id="path-9" type="solidColor" data-changed="true"></path><line class="cls-1" x1="21.82" y1="25.39" x2="23.19" y2="24.02" fill="none" stroke="#fcb1ae" stroke-width="2px" stroke-opacity="1" id="line-10" type="solidColor" data-changed="true"></line><line class="cls-1" x1="31.41" y1="15.8" x2="32.78" y2="14.43" fill="none" stroke="#fcb1ae" stroke-width="2px" stroke-opacity="1" id="line-11" type="solidColor" data-changed="true"></line><circle class="cls-1" cx="155.5" cy="231.49" r="2.91" transform="translate(-246.34 -33.83) rotate(-45)" fill="none" stroke="#fcb1ae" stroke-width="2px" stroke-opacity="1" id="circle-12" type="solidColor" data-changed="true"></circle></svg>